<svg id="visual" viewBox="0 0 900 600" width="900" height="600" xmlns="http://www.w3.org/2000/svg" xmlns:xlink="http://www.w3.org/1999/xlink" version="1.1"><g><g transform="translate(302 255)"><path d="M0 -91.7L79.4 -45.8L79.4 45.8L0 91.7L-79.4 45.8L-79.4 -45.8Z" fill="#C62368"></path></g><g transform="translate(666 138)"><path d="M0 -56L48.5 -28L48.5 28L0 56L-48.5 28L-48.5 -28Z" fill="#C62368"></path></g><g transform="translate(513 399)"><path d="M0 -83L71.9 -41.5L71.9 41.5L0 83L-71.9 41.5L-71.9 -41.5Z" fill="#C62368"></path></g><g transform="translate(107 440)"><path d="M0 -68L58.9 -34L58.9 34L0 68L-58.9 34L-58.9 -34Z" fill="#C62368"></path></g><g transform="translate(130 126)"><path d="M0 -47L40.7 -23.5L40.7 23.5L0 47L-40.7 23.5L-40.7 -23.5Z" fill="#C62368"></path></g></g></svg>